<svg width="21.000000" height="21.000000" viewBox="0 0 21 21" fill="none" xmlns="http://www.w3.org/2000/svg" xmlns:xlink="http://www.w3.org/1999/xlink">
	<desc>
			Created with Pixso.
	</desc>
	<defs/>
	<path id="Icon" d="M3.5 10.5C3.5 6.63 6.63 3.5 10.5 3.5M10.5 20.5C4.97 20.5 0.5 16.02 0.5 10.5C0.5 4.97 4.97 0.5 10.5 0.5C16.02 0.5 20.5 4.97 20.5 10.5C20.5 16.02 16.02 20.5 10.5 20.5ZM14.99 6L10.49 10.5M10.5 11.5C9.94 11.5 9.5 11.05 9.5 10.5C9.5 9.94 9.94 9.5 10.5 9.5C11.05 9.5 11.5 9.94 11.5 10.5C11.5 11.05 11.05 11.5 10.5 11.5Z" stroke="#2E58DB" stroke-opacity="1.000000" stroke-width="1.000000" stroke-linejoin="round" stroke-linecap="round"/>
</svg>
