<svg width="16.000000" height="20.000000" viewBox="0 0 16 20" fill="none" xmlns="http://www.w3.org/2000/svg" xmlns:xlink="http://www.w3.org/1999/xlink">
	<desc>
			Created with Pixso.
	</desc>
	<defs/>
	<path id="Union" d="M4 6C4 6.55225 3.55229 7 3 7L1 7C0.447708 7 0 6.55225 0 6L0 1C0 0.447754 0.447708 0 1 0L3 0C3.55229 0 4 0.447754 4 1L4 3.5L12 3.5L12 1C12 0.447754 12.4477 0 13 0L15 0C15.5523 0 16 0.447754 16 1L16 6C16 6.55225 15.5523 7 15 7L13 7C12.4477 7 12 6.55225 12 6L12 4.5L8.5 4.5L8.5 15.5L12 15.5L12 14C12 13.4478 12.4477 13 13 13L15 13C15.5523 13 16 13.4478 16 14L16 19C16 19.5522 15.5523 20 15 20L13 20C12.4477 20 12 19.5522 12 19L12 16.5L4 16.5L4 19C4 19.5522 3.55229 20 3 20L1 20C0.447708 20 0 19.5522 0 19L0 14C0 13.4478 0.447708 13 1 13L3 13C3.55229 13 4 13.4478 4 14L4 15.5L7.5 15.5L7.5 4.5L4 4.5L4 6ZM1 6L3 6L3 1L1 1L1 6ZM13 6L15 6L15 1L13 1L13 6ZM1 19L3 19L3 14L1 14L1 19ZM13 19L15 19L15 14L13 14L13 19Z" clip-rule="evenodd" fill="#2E58DB" fill-opacity="1.000000" fill-rule="evenodd"/>
</svg>
